<svg xmlns="http://www.w3.org/2000/svg"  viewBox="0 0 80 80" width="160px" height="160px"><path fill="#deb974" d="M58.9,54.577c-4.191,0-7.6-3.502-7.6-7.808s3.409-7.808,7.6-7.808c5.398,0,7.6,1.46,7.6,5.039 C66.5,47.658,64.912,54.577,58.9,54.577z M21.1,54.577c-6.012,0-7.6-6.918-7.6-10.577c0-3.579,2.202-5.039,7.6-5.039 c4.191,0,7.6,3.502,7.6,7.808S25.291,54.577,21.1,54.577z"/><path fill="#967a44" d="M58.9,39.462c5.109,0,7.1,1.272,7.1,4.538c0,3.485-1.484,10.077-7.1,10.077 c-3.915,0-7.1-3.278-7.1-7.308S54.985,39.462,58.9,39.462 M21.1,39.462c3.915,0,7.1,3.278,7.1,7.308s-3.185,7.308-7.1,7.308 c-5.616,0-7.1-6.592-7.1-10.077C14,40.734,15.991,39.462,21.1,39.462 M58.9,38.462c-4.474,0-8.1,3.719-8.1,8.308 s3.627,8.308,8.1,8.308c6.029,0,8.1-6.489,8.1-11.077S63.374,38.462,58.9,38.462L58.9,38.462z M21.1,38.462 c-4.474,0-8.1,0.95-8.1,5.538s2.088,11.077,8.1,11.077c4.474,0,8.1-3.719,8.1-8.308S25.573,38.462,21.1,38.462L21.1,38.462z"/><path fill="#f5ce85" d="M40,77.423c-2.76,0-5.418-1.177-7.292-3.229l-0.084-0.092l-0.118-0.042 C23.53,70.889,17.5,62.425,17.5,53V29.5h45V53c0,9.425-6.03,17.889-15.005,21.061l-0.118,0.042l-0.084,0.092 C45.418,76.246,42.76,77.423,40,77.423z"/><path fill="#967a44" d="M62,30v23c0,9.214-5.896,17.487-14.672,20.589l-0.236,0.083l-0.169,0.185 c-1.78,1.948-4.303,3.066-6.923,3.066s-5.143-1.117-6.923-3.066l-0.169-0.185l-0.236-0.083C23.896,70.487,18,62.214,18,53V30H62 M63,29H17v24c0,9.936,6.441,18.387,15.339,21.532c1.899,2.079,4.623,3.391,7.661,3.391s5.762-1.312,7.661-3.391 C56.559,71.387,63,62.936,63,53V29L63,29z"/><path fill="#a6714e" d="M61.5,50.5v-6.166c0-2.968-7.303-8.164-11.426-10.676l16.409,0.07 c-0.257,3.999-3.26,14.671-3.859,16.771H61.5z M17.363,50.5c-0.626-1.935-3.667-11.589-3.854-16.998l31.184,0.134 c-2.384,2.387-7.509,3.457-12.48,4.495C25.471,39.538,18.5,40.994,18.5,46v4.5H17.363z"/><path fill="#7a4f34" d="M14.034,34.004l29.259,0.125c-2.564,1.712-6.931,2.624-11.184,3.512C25.173,39.09,18,40.587,18,46 v4h-0.273C16.948,47.557,14.362,39.142,14.034,34.004 M51.793,34.166l14.145,0.06C65.513,38.281,62.99,47.374,62.246,50H62v-5.666 C62,41.363,55.85,36.8,51.793,34.166 M46.231,32.231c-0.128,0.32-0.29,0.623-0.482,0.909l2.454,0.01 C47.382,32.705,46.699,32.385,46.231,32.231L46.231,32.231z M13,33c0,6.001,4,18,4,18h2c0,0,0-2.118,0-5 c0-8.44,22.154-6.02,26.749-12.86L13,33L13,33z M48.203,33.15C52.62,35.547,61,41.535,61,44.334C61,47.505,61,51,61,51h2 c0,0,4-13.779,4-17.769L48.203,33.15L48.203,33.15z"/><path fill="#36404d" d="M51 47A3 3 0 1 0 51 53 3 3 0 1 0 51 47zM29 47A3 3 0 1 0 29 53 3 3 0 1 0 29 47z"/><path fill="#f78f8f" d="M40,38.961c-14.794,0-24.832-5.113-26.5-6.023v-6.674C13.5,11.976,26.831,4.5,40,4.5 s26.5,7.476,26.5,21.764v6.674C64.832,33.848,54.794,38.961,40,38.961z"/><path fill="#c74343" d="M40,5c12.92,0,26,7.304,26,21.264v6.375c-2.231,1.178-11.922,5.822-26,5.822 c-14.046,0-23.764-4.646-26-5.823v-6.374C14,12.304,27.08,5,40,5 M40,4c-14.083,0-27,8.069-27,22.264v6.967 c0,0,10.499,6.231,27,6.231s27-6.231,27-6.231v-6.967C67,12.069,54.083,4,40,4L40,4z"/><path fill="#fff" d="M24,29c4.415-1.177,9.318-2,16-2c6.606,0,11.606,0.839,16,2c0.13-3.837-1.161-19.245-16-24.846	C24.689,10.965,24,24.709,24,29z"/><g><path fill="#c74343" d="M40 2.5A1.5 1.5 0 1 0 40 5.5A1.5 1.5 0 1 0 40 2.5Z"/><path fill="#ab3434" d="M40,3c0.551,0,1,0.449,1,1s-0.449,1-1,1s-1-0.449-1-1S39.449,3,40,3 M40,2c-1.105,0-2,0.895-2,2 c0,1.105,0.895,2,2,2s2-0.895,2-2C42,2.895,41.105,2,40,2L40,2z"/></g><path fill="#ffc107" d="M40,23c-2.793,0-5-2.36-5-5.154v-1.764C35,13.28,37.266,11,40.05,11c1.429,0,2.798,0.618,3.757,1.694	l-1.493,1.33C41.734,13.374,40.909,13,40.05,13C38.368,13,37,14.383,37,16.082v1.764C37,19.526,38.32,21,40,21	c1.068,0,1.848-0.214,2.315-0.739l1.493,1.33C42.684,22.854,41.03,23,40,23z"/><g><path fill="#c74343" d="M58.9,43.044c-1.189,0-2.453-0.492-4.054-1.114C51.74,40.72,45.945,39.5,40,39.5 c-6.269,0-11.901,1.309-14.818,2.43c-1.611,0.623-2.883,1.114-4.082,1.114c-1.458,0-6.359-6.484-7.512-9.84 C17.36,30.748,28.288,27.5,40,27.5c11.758,0,23.387,3.337,26.423,5.671C65.197,36.831,60.264,43.044,58.9,43.044z"/><path fill="#ab3434" d="M40,28c12.098,0,22.756,3.338,25.824,5.361c-1.348,3.528-5.792,9.002-6.924,9.183 c-1.096,0-2.322-0.477-3.873-1.08C51.877,40.237,46.009,39,40,39c-6.337,0-12.04,1.327-15,2.464 c-1.561,0.603-2.793,1.079-3.875,1.081c-1.249-0.21-5.625-5.849-6.928-9.133C18.186,31.022,28.71,28,40,28 M40,27 c-12.517,0-23.625,3.587-27,6c0.909,3.222,6.221,10.544,8.1,10.544c1.276,0,2.594-0.503,4.261-1.147C28.185,41.312,33.767,40,40,40 c6.226,0,11.882,1.312,14.665,2.395c1.651,0.642,2.954,1.148,4.235,1.148c1.868,0,7.108-7.091,8.1-10.544 C64.376,30.643,52.473,27,40,27L40,27z"/></g></svg>