<svg xmlns="http://www.w3.org/2000/svg"  viewBox="0 0 80 80" width="160px" height="160px"><path fill="#c5d4de" d="M60 7H61V18H60zM57 6H58V17H57z"/><path fill="#c5d4de" d="M55 14H64V15H55zM53 8H62V9H53zM54 11H64V12H54z"/><path fill="#ffeea3" d="M55,76.5c-0.9,0-1.8-0.4-2.5-1L42.4,64.4c-0.3-0.3-0.6-0.7-0.7-1.1l-5.8-16.9 c-0.4-0.9-0.4-1.8-0.1-2.7s1-1.6,1.8-1.9c0.5-0.2,0.9-0.3,1.4-0.3c1.4,0,2.6,0.8,3.2,2.1l6.4,17.7l8.9,9.2c0.7,0.7,1,1.5,1,2.5 s-0.4,1.8-1,2.5S55.9,76.5,55,76.5z"/><path fill="#ba9b48" d="M39,42L39,42c1.2,0,2.2,0.7,2.7,1.8l6.3,17.6l0.1,0.2l0.1,0.2l8.8,9.2c0.6,0.6,0.9,1.3,0.9,2.1 s-0.3,1.6-0.9,2.1S55.8,76,55,76s-1.6-0.3-2.1-0.8L42.7,64c-0.3-0.3-0.5-0.5-0.6-0.9l-5.8-16.9l0,0l0,0c-0.3-0.7-0.3-1.5-0.1-2.3 c0.3-0.7,0.8-1.3,1.6-1.7C38.2,42.1,38.6,42,39,42 M39,41c-0.5,0-1.1,0.1-1.6,0.3c-2,0.9-2.9,3.3-2,5.3l5.8,16.9 c0.2,0.4,0.5,0.9,0.8,1.2l10.2,11.1C53,76.6,54,77,55,77s2-0.4,2.8-1.2c1.6-1.6,1.6-4.1,0-5.7L49,61l-6.3-17.6 C42,41.9,40.5,41,39,41L39,41z"/><path fill="#ffeea3" d="M37,78.5c-1.6,0-2.9-1-3.4-2.5l-4-14c-0.1-0.3-0.1-0.6-0.1-1V49c0-1.9,1.6-3.5,3.5-3.5 s3.5,1.6,3.5,3.5v11.5L40.4,74c0.3,0.9,0.1,1.8-0.3,2.7s-1.2,1.4-2.1,1.7C37.6,78.5,37.3,78.5,37,78.5z"/><path fill="#ba9b48" d="M33,46c1.7,0,3,1.3,3,3v11.4v0.1l0,0.1l3.8,13.5c0.2,0.8,0.1,1.6-0.3,2.3c-0.4,0.7-1,1.2-1.8,1.4 C37.6,78,37.3,78,37,78c-1.3,0-2.5-0.9-2.9-2.2l-4-14C30,61.6,30,61.3,30,61V49C30,47.3,31.3,46,33,46 M33,45c-2.2,0-4,1.8-4,4v12 c0,0.4,0.1,0.7,0.2,1.1l4,14c0.5,1.8,2.1,2.9,3.8,2.9c0.4,0,0.7-0.1,1.1-0.2c2.1-0.6,3.4-2.8,2.7-4.9L37,60.4V49 C37,46.8,35.2,45,33,45L33,45z"/><path fill="#c74343" d="M57.2,7L57.2,7c1.5,0,3.7,1.3,5,3.9c0.9,1.7,1.1,3.4,0.6,4.7c-0.2,0.6-0.6,1.1-1.1,1.3 c-0.3,0.1-0.5,0.2-0.8,0.2c-1.5,0-3.7-1.3-5-3.9c-0.9-1.7-1.1-3.4-0.6-4.7c0.2-0.6,0.6-1.1,1.1-1.3C56.6,7.1,56.9,7,57.2,7 M57.2,5 c-0.6,0-1.1,0.1-1.6,0.3c-2.7,1.1-3.4,5-1.5,8.7c1.5,3,4.3,4.9,6.7,4.9c0.6,0,1.1-0.1,1.6-0.3c2.7-1.1,3.4-5,1.5-8.7 C62.4,6.9,59.6,5,57.2,5L57.2,5z"/><path fill="#c74343" d="M65.7 16.2H67.7V30.5H65.7z" transform="rotate(-35.537 66.672 23.334)"/><path fill="#ffeea3" d="M37,20.5c-3,0-5.5-2.5-5.5-5.5S34,9.5,37,9.5s5.5,2.5,5.5,5.5S40,20.5,37,20.5z"/><path fill="#ba9b48" d="M37,10c2.8,0,5,2.2,5,5s-2.2,5-5,5s-5-2.2-5-5S34.2,10,37,10 M37,9c-3.3,0-6,2.7-6,6s2.7,6,6,6 s6-2.7,6-6S40.3,9,37,9L37,9z"/><path fill="#f78f8f" d="M29.5 60.5L29.5 41.5 44.5 41.5 44.5 44.8 37.5 52.8 36.6 60.5z"/><path fill="#c74343" d="M44,42v2.6l-6.8,7.7L37,52.6l0,0.3L36.1,60H30V42H44 M45,41H29v20h8l1-8l7-8V41L45,41z"/><g><path fill="#f78f8f" d="M40.6 60.5L37.4 52.7 29.5 44.8 29.5 41.5 44.5 41.5 44.5 45.1 48.4 60.5z"/><path fill="#c74343" d="M44,42v3v0.1l0,0.1L47.7,60h-6.8l-3-7.4l-0.1-0.2l-0.1-0.1L30,44.6V42H44 M45,41H29v4l8,8l3.3,8H49 l-4-16V41L45,41z"/></g><g><path fill="#839cb2" d="M13.2,8.5c-1.5-0.4-1.7-1-1.7-1.5c0-0.7,0.4-1.1,1.7-1.5l5.3-1.8v6.6L13.2,8.5z"/><path fill="#66798f" d="M18,4.4v5.2L13.3,8C12,7.6,12,7.2,12,7c0-0.3,0-0.6,1.3-1.1L18,4.4 M19,3l-6,2c-1.2,0.4-2,0.9-2,2 c0,1.1,0.9,1.7,2,2l6,2V3L19,3z"/></g><g><path fill="#ffeea3" d="M29.5,44.5V29.8L9.2,18c-0.8-0.5-1.4-1.2-1.6-2.1S7.5,14,8,13.2c0.6-1.1,1.8-1.7,3-1.7 c0.6,0,1.2,0.2,1.8,0.5l20.1,11.5H41c0.4,0,0.9,0.1,1.3,0.3l10.9,5.6l14.9-3.7c0.3-0.1,0.6-0.1,0.8-0.1c1.6,0,3,1.1,3.4,2.7 c0.5,1.9-0.7,3.8-2.5,4.2l-16,4c-0.3,0.1-0.6,0.1-0.9,0.1c-0.4,0-0.9-0.1-1.3-0.3l-7.2-3.6v11.9H29.5z"/><path fill="#ba9b48" d="M11,12c0.5,0,1,0.1,1.5,0.4l20,11.5l0.2,0.1H33h8c0.4,0,0.7,0.1,1.1,0.2l10.8,5.5l0.3,0.2l0.4-0.1 l14.7-3.7C68.5,26,68.8,26,69,26c1.4,0,2.6,0.9,2.9,2.3c0.4,1.6-0.6,3.2-2.2,3.6l-16,4C53.5,36,53.2,36,53,36 c-0.4,0-0.7-0.1-1.1-0.2l-6.5-3.3L44,31.8v1.6V44H30V30.1v-0.6l-0.5-0.3l-20-11.7c-0.7-0.4-1.2-1.1-1.4-1.8C7.9,15,8,14.2,8.4,13.5 C8.9,12.6,9.9,12,11,12 M11,11c-1.4,0-2.7,0.7-3.5,2c-1.1,1.9-0.5,4.4,1.4,5.5l20,11.7V45h16V33.4l6.5,3.3c0.5,0.2,1,0.3,1.5,0.3 c0.3,0,0.7,0,1-0.1l16-4c2.1-0.5,3.4-2.7,2.9-4.9c-0.5-1.8-2.1-3-3.9-3c-0.3,0-0.6,0-1,0.1l-14.7,3.7l-10.8-5.5 C42,23.1,41.5,23,41,23h-8L13,11.5C12.4,11.2,11.7,11,11,11L11,11z"/></g><g><path fill="#8bb7f0" d="M29.5,44.5V21.6l3.4,1.9H41c0.4,0,0.9,0.1,1.3,0.3l2.2,1.1v19.6H29.5z"/><path fill="#4e7ab5" d="M30,22.4l2.5,1.4l0.2,0.1H33h8c0.4,0,0.7,0.1,1.1,0.2l1.9,1v4v4.2V44H30V30.1V22.4 M29,20.7v9.4V45 h16V33.4v-4.2v-4.6l-2.5-1.3C42,23.1,41.5,23,41,23h-8L29,20.7L29,20.7z"/></g></svg>