<svg width="88" height="32" viewBox="0 0 88 32" fill="none" xmlns="http://www.w3.org/2000/svg">
<path d="M77.4158 2.85333L76.8871 2.18667C76.7245 1.97333 76.5347 1.77333 76.3313 1.57333C75.2605 0.559998 73.8236 0 72.3054 0H0V32H72.3189C73.8371 32 75.2605 31.44 76.3449 30.4267C76.5482 30.24 76.7245 30.04 76.9007 29.8267C76.9142 29.8133 76.9142 29.8 76.9278 29.7867L87.7451 16.0133L77.4158 2.85333Z" fill="#121214"/>
<path d="M65.513 22.9271C61.3514 22.9271 58.0845 19.7138 58.0845 15.5938C58.0845 11.7271 61.4328 8.58042 65.5401 8.58042C67.5328 8.58042 69.3899 9.32709 70.7861 10.6604C72.1959 12.0204 72.9685 13.8338 72.9685 15.7938C72.9685 19.7271 69.6203 22.9271 65.513 22.9271ZM65.513 11.0604C64.1439 11.0604 62.8832 11.5404 61.975 12.3938C61.0532 13.2604 60.5517 14.4871 60.5517 15.8204C60.5517 17.0871 61.0803 18.2604 62.0563 19.1271C62.9917 19.9671 64.2659 20.4471 65.5537 20.4471C66.8821 20.4471 68.1157 19.9671 69.051 19.0738C69.9863 18.1804 70.515 16.9804 70.515 15.6871C70.515 14.3938 69.9863 13.2071 69.0374 12.3538C68.0885 11.5138 66.855 11.0604 65.513 11.0604ZM31.7596 22.8738C28.4385 22.8738 26.9881 21.2871 26.5136 20.5938C25.7816 19.5271 25.7139 18.5004 25.7139 17.3671V8.96709H28.1945V17.3671C28.1945 18.2471 28.2488 18.9138 28.8588 19.5271C29.4688 20.1271 30.5125 20.4071 32.0579 20.4071C33.3185 20.4071 34.1454 20.2071 34.7012 19.7804C35.2841 19.3138 35.5688 18.5271 35.5688 17.3671V8.96709H38.0223V17.3671C38.0223 18.6738 37.9545 19.6871 37.0192 20.8738C35.6908 22.6071 33.1559 22.8738 31.7596 22.8738ZM52.2421 22.6071L49.4497 17.6738H44.9221V22.6071H42.4279V8.96709H50.5883C53.2181 8.96709 55.0617 10.7671 55.0617 13.3404C55.0617 15.3538 53.9365 16.9404 52.1201 17.5004L55.0617 22.6071H52.2421ZM50.6019 15.2204C51.1983 15.2204 52.5945 15.0338 52.5945 13.2471C52.5945 12.1138 51.8354 11.4071 50.6019 11.4071H44.9357V15.2204H50.6019ZM14.639 22.6071V11.4204H9.89453V8.96709H21.8234V11.4204H17.079V22.6071H14.639Z" fill="white"/>
<path d="M65.541 8.6072C67.5201 8.6072 69.3772 9.34053 70.7734 10.6872C72.1696 12.0339 72.9423 13.8605 72.9423 15.8072C72.9423 19.7139 69.6076 22.9005 65.5138 22.9005C61.3658 22.9005 58.099 19.6872 58.099 15.5939C58.1125 11.7405 61.4472 8.6072 65.541 8.6072ZM65.541 20.4739C66.8694 20.4739 68.1165 19.9805 69.0518 19.1005C70.0007 18.2072 70.5159 16.9939 70.5159 15.7005C70.5159 14.4072 69.9872 13.2072 69.0383 12.3405C68.103 11.5005 66.8558 11.0339 65.5138 11.0339C64.1312 11.0339 62.8705 11.5139 61.9487 12.3805C61.027 13.2605 60.5118 14.4872 60.5118 15.8339C60.5118 17.1005 61.0405 18.2872 62.0165 19.1672C62.9654 19.9939 64.2396 20.4739 65.541 20.4739ZM50.6027 8.99386C53.3003 8.99386 55.049 10.8605 55.049 13.3539C55.049 15.2872 53.9781 16.9405 52.1074 17.5005L55.0354 22.5939H52.2701L49.4776 17.6605H44.9094V22.5939H42.4558V8.99386H50.6027ZM44.9094 15.2472H50.6027C52.2701 15.2472 52.6225 14.0472 52.6225 13.2472C52.6225 12.1805 51.9447 11.3805 50.6027 11.3805H44.9094V15.2472ZM38.0096 8.99386V17.3672C38.0096 18.6605 37.9418 19.6739 37.0065 20.8605C35.6645 22.5939 33.1432 22.8472 31.7605 22.8472C28.4529 22.8472 27.0025 21.2605 26.5416 20.5805C25.8096 19.5139 25.7554 18.5005 25.7554 17.3672V8.99386H28.1818V17.3672C28.1818 18.2472 28.2361 18.9272 28.8596 19.5405C29.4696 20.1405 30.527 20.4339 32.0723 20.4339C33.333 20.4339 34.1734 20.2339 34.7292 19.7939C35.3256 19.3272 35.6103 18.5272 35.6103 17.3539V8.98053H38.0096V8.99386ZM21.7972 8.99386V11.4072H17.0527V22.5939H14.6534V11.4072H9.90895V8.99386H21.7972ZM65.541 8.5672C61.4201 8.5672 58.0718 11.7272 58.0718 15.6072C58.0718 19.7272 61.3523 22.9539 65.5274 22.9539C69.6483 22.9539 72.9965 19.7539 72.9965 15.8072C72.9965 13.8472 72.2239 12.0072 70.8141 10.6472C69.4043 9.30053 67.5336 8.5672 65.541 8.5672ZM65.541 20.4339C64.2532 20.4339 62.9925 19.9539 62.0707 19.1272C61.1083 18.2605 60.5796 17.0872 60.5796 15.8339C60.5796 14.5005 61.0812 13.2872 62.003 12.4205C62.9112 11.5672 64.1583 11.0872 65.5274 11.0872C66.8559 11.0872 68.0894 11.5539 69.0112 12.3939C69.9601 13.2472 70.4752 14.4339 70.4752 15.7139C70.4752 16.9939 69.9601 18.1939 69.0247 19.0739C68.0894 19.9405 66.8558 20.4339 65.541 20.4339ZM50.6027 8.95387H42.4558H42.4152V9.0072V22.5939V22.6339H42.4558H44.9094H44.9501V22.5939V17.7139H49.437L52.2158 22.6205L52.2294 22.6472H52.2565H55.0354H55.1167L55.0761 22.5805L52.1752 17.5405C53.9781 16.9805 55.1032 15.3805 55.1032 13.3672C55.0896 10.7539 53.2461 8.95387 50.6027 8.95387ZM44.9501 11.4339H50.5892C51.8227 11.4339 52.5547 12.1139 52.5547 13.2472C52.5547 15.0072 51.1721 15.2072 50.5892 15.2072H44.9501V11.4339ZM38.0638 8.95387H38.0232H35.6103H35.5696V9.0072V17.3805C35.5696 18.5405 35.285 19.3139 34.7021 19.7805C34.1598 20.2072 33.333 20.4072 32.0858 20.4072C30.5541 20.4072 29.5103 20.1139 28.9003 19.5272C28.2903 18.9272 28.2361 18.2605 28.2361 17.3805V9.0072V8.95387H28.1954H25.7554H25.7147V9.0072V17.3805C25.7147 18.5139 25.769 19.5405 26.5145 20.6205C26.989 21.3139 28.4529 22.9139 31.7741 22.9139C33.1703 22.9139 35.7052 22.6472 37.0607 20.9005C37.9961 19.7139 38.0638 18.6872 38.0638 17.3805V9.0072V8.95387ZM21.8514 8.95387H21.8107H9.9225H9.88184V9.0072V11.4072V11.4605H9.9225H14.6263V22.5939V22.6339H14.6669H17.0663H17.1069V22.5939V11.4605H21.8107H21.8514V11.4072V8.99386V8.95387Z" fill="white"/>
</svg>
